<?xml version="1.0"?>

<svg xmlns="http://www.w3.org/2000/svg" xmlns:xlink="http://www.w3.org/1999/xlink" id="Camada_1" viewBox="0 0 323.95 291.89" width="323.95001220703125" height="291.8900146484375">
  <defs>
    
    <linearGradient id="gradHook9" data-name="Gradiente sem nome 108" x1="113.2" y1="204.07" x2="210.7" y2="87.88" gradientUnits="userSpaceOnUse">
      <stop offset="0" stop-color="#e84f13"></stop>
      <stop offset=".12" stop-color="#d94d19"></stop>
      <stop offset=".34" stop-color="#b24729"></stop>
      <stop offset=".64" stop-color="#743f44"></stop>
      <stop offset=".99" stop-color="#233567"></stop>
    </linearGradient>
  </defs>
  <path fill="url(#gradHook9)" d="M189.08,163.03c0,17.09,5.97,31.71,17.91,43.86,11.94,12.16,26.34,18.24,43.21,18.24h12.16c14.46,0,26.78,5.09,36.96,15.28,10.19,10.18,15.28,22.51,15.28,36.96h-75.57c-28.7,0-53.28-10.02-73.76-30.06-20.48-20.04-30.72-44.3-30.72-72.78v-45.67c0-17.08-5.91-31.71-17.74-43.86-11.83-12.16-26.28-18.24-43.37-18.24h-11.5c-14.68,0-27.11-5.04-37.29-15.11-10.19-10.07-15.28-22.45-15.28-37.13h75.57c28.69,0,53.23,10.02,73.6,30.06,20.37,20.04,30.56,44.31,30.56,72.78v45.67Z"></path>
</svg>