<?xml version="1.0"?>

<svg xmlns="http://www.w3.org/2000/svg" xmlns:xlink="http://www.w3.org/1999/xlink" id="Camada_1" viewBox="0 0 323.95 291.89" width="323.95001220703125" height="291.8900146484375">
  <defs>
    
    <linearGradient id="Gradiente_sem_nome_108" data-name="Gradiente sem nome 108" x1="95.83" y1="268.22" x2="306.74" y2="16.86" gradientUnits="userSpaceOnUse">
      <stop offset="0" stop-color="#e84f13"></stop>
      <stop offset=".12" stop-color="#d94d19"></stop>
      <stop offset=".34" stop-color="#b24729"></stop>
      <stop offset=".64" stop-color="#743f44"></stop>
      <stop offset=".99" stop-color="#233567"></stop>
    </linearGradient>
  </defs>
  <path fill="url(#Gradiente_sem_nome_108)" d="M162.31,65.88c-22.12,0-41.3,7.79-57.55,23.36s-24.37,34.42-24.37,56.53,8.07,41.3,24.2,56.87c16.14,15.57,35.38,23.36,57.72,23.36h78.2c15.57,0,28.94,5.59,40.12,16.76,11.17,11.17,16.76,24.54,16.76,40.12h-135.07c-37.46,0-69.45-13.43-95.97-40.29-26.52-26.85-39.78-59.13-39.78-96.82s13.26-69.62,39.78-96.48c26.52-26.86,58.51-40.28,95.97-40.28h135.07c0,15.57-5.59,28.94-16.76,40.12-11.17,11.17-24.54,16.76-40.12,16.76h-78.2Z"></path>
</svg>